/* XPM */
static char *ef2c9c5abf8c4727bef30cc214fa2f5cKvWerwpBjiBVJt4S[] = {
/* columns rows colors chars-per-pixel */
"34 58 35 1 ",
"  c None",
". c #371D03",
"X c #1C233D",
"o c #282828",
"O c #313131",
"+ c #562D05",
"@ c #581C38",
"# c #5E1F3F",
"$ c #58222C",
"% c #552C28",
"& c #6D2020",
"* c #792C2C",
"= c #703C30",
"- c #773F31",
"; c #764607",
": c #764624",
"> c #2C3555",
", c #38446D",
"< c #9C363E",
"1 c #A12B25",
"2 c #D03C34",
"3 c #916417",
"4 c #A6731A",
"5 c #C06C40",
"6 c #E8A068",
"7 c #EEA26F",
"8 c #374E88",
"9 c #3E82C2",
"0 c #9B938C",
"q c #BDB8B3",
"w c #F8E2AC",
"e c #FFE7AC",
"r c gray79",
"t c #E7E7E7",
"y c #EAEAEA",
/* pixels */
"                                  ",
"                                  ",
"             ;;;                  ",
"             +44;++               ",
"            .+33433++             ",
"           +;.+;33;;;.++          ",
"          +;4443+;++;.+;+         ",
"          .+.;;;++3++.;;+         ",
"         .;++.444;+;;.;34+        ",
"         .3;.343;;4+;.344+        ",
"         .4;+443;.;4+.343+        ",
"         .34+343......;3;+        ",
"         .;3.33.66wwww.;++        ",
"         ...3;.66wwwwww...        ",
"         5wo-666wwwww66:w.        ",
"         @w5=ooo777ooo=%w@        ",
"         @65oqtOo7otOqo56@        ",
"          @56y9877798t65@         ",
"           @5e99eee99e5@          ",
"            @wwwwwwwww@           ",
"             @6wwwww6@            ",
"           XXX$$555$$XXX          ",
"          X888XryqyrX888X         ",
"         X>,888Xq*qX888,>X        ",
"         X>>,,,Xq*qX,,,>>X        ",
"         X>>>,,,X*X,,,,>>X        ",
"        X,,>>,88X*X88,>>,,X       ",
"        X88,>8888X8888>,88X       ",
"        X88>X,88X8888,X>88X       ",
"        X8,>X>88X8888>X>,8X       ",
"       X88>>X>88X888,>X>>88X      ",
"       X8,>XX>,88X88>>XX>,8X      ",
"      X8,>X X>>88X88>>X X>,8X     ",
"      X,>>X X>>88X88>>X X>>,X     ",
"      XXXXXX>>>88X88,>>XXXXXX     ",
"      <eee6#>>,88X88,>>#6eee<     ",
"      <ee6<#>>888X888>>#<6ee<     ",
"      #66<6#X>888X888>X#6<66#     ",
"       #66#XX>88XXX88>XX#66#      ",
"        ## X>XXX>X>XXX>X ##       ",
"           X>>>>X X>>>>X          ",
"           X,88>X X>88,X          ",
"           X>>>>X X>>>>X          ",
"           X>>>X   X>>>X          ",
"           X>,>X   X>,>X          ",
"          X>,8>X   X>8,>X         ",
"          X>88>X   X>88>X         ",
"          X,88>X   X>88,X         ",
"          X888>X   X>888X         ",
"          XXXXXX   XXXXXX         ",
"         X888>>X   X>>888X        ",
"         XX>>>>X   X>>>>XX        ",
"         12&q10&   &01q&21        ",
"        12&q211q   q112q&21       ",
"        &11111q0   0q11111&       ",
"        0qttqq0     0qqttq0       ",
"         00000       00000        ",
"                                  "
};
